<svg xmlns="http://www.w3.org/2000/svg" viewBox="0 0 1000 1000" fill="none">
  <path d="M0 0 C2.24681113 -0.00361292 4.49347952 -0.01439554 6.7402544 -0.02748609 C14.66026878 -0.07348566 22.5798689 -0.09419951 30.5000124 -0.09022832 C36.95051913 -0.08757687 43.39950276 -0.12259231 49.84962177 -0.19276738 C85.08963625 -0.56783846 118.59081253 -0.68944654 152.52848148 10.22330356 C156.8319281 11.57605816 161.18932759 12.74474777 165.53449726 13.95496821 C177.00562972 17.24907193 187.96895522 21.72032133 198.90821552 26.4573791 C203.17656532 28.30416253 207.47622371 30.00079353 211.8359499 31.61802363 C231.20673114 38.82158505 247.84582032 51.11951067 264.66993427 62.9026916 C267.07119595 64.55585506 269.50612242 66.10632616 271.97852802 67.64878535 C278.44133044 71.91779246 283.87216599 77.52995265 289.47852802 82.83628535 C296.15592033 89.18384616 296.15592033 89.18384616 303.66602802 94.46128535 C311.56337461 99.15870907 316.71117984 106.52357483 322.14649677 113.75034785 C322.91606709 114.76870723 323.6856374 115.7870666 324.47852802 116.83628535 C325.45886005 118.14146113 325.45886005 118.14146113 326.45899677 119.4730041 C328.64533425 122.03148413 330.94773675 123.9603207 333.60352802 126.02378535 C350.00255626 139.19136969 350.00255626 139.19136969 353.39259052 148.28941035 C354.76533663 151.50894439 356.66629548 153.85401428 358.85352802 156.58628535 C369.65420156 170.31588737 380.59786683 184.70742363 387.47852802 200.83628535 C388.33995826 202.31520098 389.2345908 203.77543084 390.16602802 205.21128535 C393.02005239 209.86069849 395.40758828 214.65660298 397.72852802 219.58628535 C398.06972675 220.30735469 398.41092548 221.02842402 398.76246357 221.77134395 C400.60643369 225.73810385 402.10555454 229.67876726 403.47852802 233.83628535 C404.27306406 235.64150326 405.06890998 237.44628688 405.88941669 239.23984981 C409.27095747 246.63382267 411.96047632 254.02360661 414.24024677 261.8245666 C415.15556491 264.9148475 416.23950322 267.91320663 417.37305927 270.93003535 C419.79654406 277.5251943 421.66849187 284.23801557 423.47852802 291.02378535 C423.65250111 291.67557765 423.82647419 292.32736995 424.00571918 292.99891353 C427.31956659 305.50076727 429.69275957 318.02839378 431.47852802 330.83628535 C431.68469746 332.2436999 431.68469746 332.2436999 431.89503193 333.67954707 C442.49040714 406.10410359 433.58214388 480.50589944 404.47852802 547.83628535 C404.2265163 548.45269893 403.97450459 549.0691125 403.71485615 549.70420527 C402.34350369 553.03079258 400.88948249 555.90262956 398.72852802 558.77378535 C395.988804 562.75210697 394.03336302 566.89995981 392.16602802 571.33628535 C385.54993846 586.92781812 377.12807468 600.94393027 367.47852802 614.83628535 C366.94727314 615.60633906 366.41601826 616.37639277 365.86866474 617.16978145 C364.28699359 619.45920615 362.69755546 621.74294949 361.10352802 624.02378535 C360.62810566 624.70634395 360.1526833 625.38890254 359.66285419 626.09214473 C351.76630437 637.26752443 351.76630437 637.26752443 347.29102802 640.33628535 C345.02910763 642.20821947 344.47849346 644.23299799 343.42091084 646.90952754 C339.63795082 654.6440147 331.62388761 660.84669198 325.56324482 666.88193965 C324.04361134 668.39621115 322.52940285 669.91575965 321.0156374 671.43589473 C316.22523505 676.22952617 311.38518275 680.91361658 306.23316669 685.32236934 C304.04989595 687.20611246 301.96004359 689.17667755 299.86622334 691.15855098 C282.80613265 707.2604571 263.26517161 720.3438353 243.47852802 732.83628535 C242.63709248 733.3693127 241.79565693 733.90234004 240.92872334 734.45151973 C232.12245357 740.01643589 223.28985726 745.55281257 214.16602802 750.58628535 C213.05614521 751.1998791 211.9462624 751.81347285 210.80274677 752.44566035 C206.74817177 754.14181629 203.88334281 754.72494019 199.47852802 754.83628535 C196.94727802 753.5433166 196.94727802 753.5433166 194.97852802 751.64878535 C194.30821552 751.03648067 193.63790302 750.42417598 192.94727802 749.7933166 C191.47852802 747.83628535 191.47852802 747.83628535 191.47852802 743.83628535 C192.13852802 743.83628535 192.79852802 743.83628535 193.47852802 743.83628535 C193.47852802 743.17628535 193.47852802 742.51628535 193.47852802 741.83628535 C192.81852802 741.83628535 192.15852802 741.83628535 191.47852802 741.83628535 C191.61927156 738.07139572 192.79224304 736.24343478 195.40040302 733.7073791 C196.66638533 732.55173084 197.9431457 731.40781639 199.22852802 730.27378535 C199.90665546 729.65882197 200.58478291 729.04385859 201.28345966 728.41025996 C202.67742699 727.14658517 204.07531325 725.88722005 205.47706318 724.63218379 C207.76062298 722.5831638 210.01835463 720.50800747 212.2693758 718.42338252 C213.83063878 716.97784527 215.39321577 715.53374688 216.95631123 714.0901916 C217.53149998 713.55862453 218.10668873 713.02705745 218.69930744 712.47938228 C219.84409363 711.42218078 220.98968936 710.36585488 222.13628864 709.31062007 C233.89365722 698.47487848 245.23631689 687.23484732 256.52711201 675.91807246 C259.05820526 673.38122065 261.59385053 670.84897312 264.1307888 668.31796813 C266.1187712 666.33362096 268.10433956 664.34687192 270.08921337 662.35941577 C271.46976478 660.97789203 272.85229586 659.59834746 274.23489094 658.21886897 C278.65075111 653.78660903 282.93778253 649.30276109 287.00539875 644.54752803 C289.37313524 641.79707578 291.87114602 639.17032286 294.35352802 636.52378535 C298.83792235 631.70314883 303.09765031 626.76114623 307.21680927 621.6214416 C309.21812213 619.1569579 311.27498741 616.75303769 313.35841084 614.35801387 C350.66680572 571.21935129 374.36240806 518.93383746 383.47852802 462.83628535 C383.75889912 461.13871089 383.75889912 461.13871089 384.04493427 459.40684199 C385.59545827 449.09516519 385.87798625 438.93570269 385.85352802 428.52378535 C385.8529842 427.64777675 385.85244038 426.77176814 385.85188007 425.86921382 C385.80931682 410.88712012 384.65196712 396.51224996 381.47852802 381.83628535 C381.25358662 380.7792541 381.02864521 379.72222285 380.7968874 378.63316035 C377.79297188 364.7969434 374.0879693 351.22252327 369.47852802 337.83628535 C369.25761494 337.18498652 369.03670185 336.5336877 368.80909443 335.86265254 C359.70546061 309.3188731 346.48158574 284.15869776 329.47852802 261.83628535 C329.05926044 261.2757043 328.63999287 260.71512324 328.20802021 260.13755488 C320.93206586 250.42626044 312.90012673 241.56209593 304.47852802 232.83628535 C303.12887959 231.42476192 303.12887959 231.42476192 301.75196552 229.98472285 C296.51866953 224.61851776 291.02537288 219.74512098 285.12305927 215.12583613 C283.95217189 214.20769077 282.78599019 213.28353081 281.62305927 212.35532832 C232.03111223 172.81086564 170.46065374 152.55684454 107.29102802 152.64878535 C106.0405518 152.65019023 106.0405518 152.65019023 104.76481342 152.65162349 C52.91431963 152.77726839 4.12008354 164.28351649 -38.73680401 194.5799377 C-40.60999242 195.89860084 -42.4986996 197.19204658 -44.39256573 198.4808166 C-48.45058889 201.24444462 -52.48881577 204.03580365 -56.52147198 206.83628535 C-57.26316631 207.35046016 -58.00486065 207.86463496 -58.76903057 208.39439082 C-61.04402512 209.97444978 -63.31464299 211.56060258 -65.58397198 213.14878535 C-66.61916973 213.86784053 -66.61916973 213.86784053 -67.67528057 214.60142207 C-75.18231101 219.87954593 -81.16096964 225.21917741 -86.58397198 232.64878535 C-90.50360129 237.90788304 -94.48892585 243.0655161 -98.71654034 248.0811584 C-140.64863253 297.83916439 -164.71355277 361.7298638 -164.77147198 426.89878535 C-164.77214672 427.59126369 -164.77282146 428.28374202 -164.77351665 428.99720454 C-164.67768349 491.6908996 -142.82020746 552.10335423 -103.52147198 600.83628535 C-102.74158916 601.8211291 -101.96170635 602.80597285 -101.15819073 603.82066035 C-84.40944105 624.34634425 -66.77948218 643.70226543 -40.45897198 650.02378535 C-39.4219212 650.28353145 -38.38487041 650.54327754 -37.31639385 650.81089473 C-0.68201519 659.80106882 39.75592309 651.28508853 71.85059834 632.19981074 C104.70789294 611.88227594 129.24247476 581.36318076 141.72852802 544.77378535 C142.08007954 543.74898067 142.08007954 543.74898067 142.4387331 542.70347285 C143.17955484 540.42811079 143.84038315 538.14261442 144.47852802 535.83628535 C144.88458271 534.40965571 144.88458271 534.40965571 145.29884052 532.95420527 C147.85882557 522.760741 148.00335002 512.74255954 147.97950459 502.28037715 C147.97853737 499.30256964 148.02018409 496.32739179 148.06446552 493.34995723 C148.26401151 461.29117054 136.77059487 431.44509003 116.47852802 406.83628535 C115.88427021 406.0886291 115.2900124 405.34097285 114.67774677 404.57066035 C95.44925903 381.25783989 64.08721322 367.50682338 34.63697529 364.03257442 C1.25072204 360.99643058 -31.26211897 370.50105632 -57.06834698 391.95347285 C-84.82843327 416.17888977 -97.79268103 448.89094293 -101.34422588 484.99204707 C-102.6902844 497.70175625 -102.6902844 497.70175625 -107.27147198 502.77378535 C-110.58038497 504.3363276 -112.9014471 504.27318491 -116.52147198 503.83628535 C-119.12994827 502.33882674 -121.391761 500.96599633 -123.52147198 498.83628535 C-124.32638979 489.21047421 -124.12656359 479.43409414 -124.20897198 469.77378535 C-124.21525867 469.05893977 -124.22154537 468.34409419 -124.22802258 467.60758662 C-124.36738072 448.93583152 -123.86629712 430.9791192 -118.89647198 412.83628535 C-118.68300121 412.05518397 -118.46953045 411.27408259 -118.24959087 410.46931148 C-110.37791153 382.50605081 -96.98760592 357.18490937 -78.52147198 334.83628535 C-77.83867168 333.99903926 -77.83867168 333.99903926 -77.14207745 333.1448791 C-48.76131088 298.38222081 -11.40187778 277.58223987 32.47852802 268.83628535 C33.34196827 268.66414515 34.20540852 268.49200496 35.09501362 268.31464839 C42.95747463 266.87286889 50.60478924 266.48472043 58.58790302 266.43003535 C59.24199398 266.4243806 59.89608494 266.41872584 60.56999683 266.41289973 C64.04066198 266.38315404 67.51116639 266.36455246 70.98194599 266.3558166 C73.79205292 266.34710384 76.60091194 266.3195164 79.41065693 266.27378535 C97.54361937 265.98470572 114.06527683 267.34210752 131.47852802 272.83628535 C133.42644664 273.42844871 135.37452595 274.02008374 137.3227663 274.6111877 C148.28918679 277.95775633 158.4752882 282.24762085 168.47852802 287.83628535 C169.09888935 288.17885371 169.71925068 288.52142207 170.35841084 288.87437129 C180.7186361 294.65519381 190.18309627 301.48296522 199.47852802 308.83628535 C200.03749775 309.27666133 200.59646748 309.71703731 201.17237568 310.17075801 C245.90744755 345.77122997 275.83980296 401.54456145 282.47095966 458.42564082 C282.79755208 461.56154719 283.06911181 464.69948648 283.31544209 467.84263301 C283.45299131 469.52411048 283.62933853 471.20234794 283.81446552 472.8792541 C287.59254931 508.26049824 281.104409 544.4569847 269.47852802 577.83628535 C269.15513447 578.80090693 269.15513447 578.80090693 268.82520771 579.78501582 C257.33459983 613.96560287 237.90768159 646.10521951 213.52540302 672.6058166 C211.63181615 674.6692481 209.80026639 676.77203116 207.97852802 678.89878535 C197.45709567 690.94079767 197.45709567 690.94079767 193.29493427 692.8245666 C191.29878366 693.69176469 191.29878366 693.69176469 190.64259052 695.8245666 C190.4646999 696.59155879 190.28680927 697.35855098 190.10352802 698.14878535 C188.64879379 702.96952698 186.83192173 705.09525968 182.47852802 707.83628535 C181.11243264 708.26183491 179.73618226 708.65557852 178.35352802 709.02378535 C173.32452945 710.50389196 170.08250649 713.46651749 166.18287373 716.87461543 C160.71346281 721.60636712 154.7335274 725.2293879 148.47852802 728.83628535 C147.69767841 729.29293574 146.9168288 729.74958613 146.11231709 730.22007442 C136.59598134 735.78486503 127.0561262 741.24354435 117.12647724 746.04160762 C114.05954917 747.52569219 111.11625557 749.05021902 108.17774677 750.7855041 C80.02505639 767.31343883 36.41542752 777.28711352 3.95509052 777.3401916 C2.51566526 777.349891 1.07624262 777.35998716 -0.3631773 777.37044978 C-3.35985917 777.38822894 -6.35628423 777.39399058 -9.35301495 777.39219356 C-12.36463759 777.39195104 -15.37487874 777.4126018 -18.38621807 777.45371699 C-37.96287393 777.71677029 -55.55865722 776.31711027 -74.52147198 770.83628535 C-75.90653569 770.46182193 -77.2923412 770.09008086 -78.67918682 769.72227168 C-81.81695814 768.86325272 -84.91920776 767.93981492 -88.02147198 766.96128535 C-89.63058453 766.46048457 -89.63058453 766.46048457 -91.2722044 765.9495666 C-98.39233674 763.67231832 -105.21031464 761.0131495 -111.97093487 757.83018184 C-116.6660849 755.62022606 -121.39481207 753.74192297 -126.27855206 751.98814082 C-137.13758701 748.08130158 -146.7318963 743.02935407 -156.55760479 737.0096252 C-158.98720729 735.55802529 -161.49072996 734.28915636 -164.02147198 733.02378535 C-170.26662378 729.68199585 -175.81118688 725.32358219 -181.46263409 721.0823791 C-185.92039559 717.73761856 -190.39468635 714.53486411 -195.08397198 711.52378535 C-202.41552398 706.72811187 -208.57702948 700.86827642 -214.64647198 694.58628535 C-217.09028813 692.09359287 -219.36937277 690.1927861 -222.39647198 688.46128535 C-227.00563454 685.78616355 -230.40043451 682.123399 -234.08006573 678.3089416 C-236.17049075 676.19175914 -238.29243929 674.28941371 -240.58397198 672.39878535 C-246.67520224 667.17068489 -251.7750069 660.83938159 -255.84178448 653.9339416 C-258.55177179 649.52208017 -261.94888122 646.23111625 -265.70897198 642.71128535 C-271.75811292 636.87365799 -276.69572063 630.84423223 -281.39256573 623.8948791 C-283.16642328 621.34638284 -284.94252026 619.19054147 -287.08397198 616.96128535 C-291.98472373 611.60869124 -295.09322736 604.95562108 -298.53612041 598.6214416 C-300.7082189 594.68626219 -303.1523723 590.9224163 -305.61741924 587.16636348 C-333.70174566 543.53884566 -348.11726576 488.96813416 -354.52147198 437.83628535 C-354.60547756 437.20160838 -354.68948315 436.56693141 -354.77603436 435.9130218 C-355.52474368 429.85818167 -355.71275646 423.86696943 -355.75975323 417.7698791 C-355.77471592 416.18831271 -355.77471592 416.18831271 -355.78998089 414.57479548 C-356.0592578 378.53961536 -353.51962757 344.52133176 -346.64647198 309.14878535 C-346.44000042 308.08472468 -346.23352886 307.02066401 -346.02080059 305.92435908 C-340.07705784 275.67379042 -331.87638725 243.5757785 -314.54759502 217.60142207 C-312.96256574 214.87485493 -312.37648285 211.85732376 -311.52147198 208.83628535 C-310.21401448 207.14924343 -308.87975168 205.482685 -307.52147198 203.83628535 C-307.02647198 202.68128535 -306.53147198 201.52628535 -306.02147198 200.33628535 C-304.52147198 196.83628535 -304.52147198 196.83628535 -302.70897198 194.58628535 C-299.90647494 191.06314621 -297.96862397 187.24417479 -295.88865948 183.2620666 C-294.52147198 180.83628535 -294.52147198 180.83628535 -292.52147198 178.83628535 C-292.10897198 177.63230098 -291.69647198 176.4283166 -291.27147198 175.18784785 C-289.54843343 170.40856969 -286.80756444 167.02850708 -283.52147198 163.21128535 C-282.35214007 161.81920008 -281.18419706 160.42594711 -280.01756573 159.03159785 C-279.43217022 158.33582637 -278.84677471 157.64005488 -278.24363995 156.92319942 C-276.59320364 154.9232094 -275.00248314 152.89133523 -273.43162823 150.82847285 C-272.70943096 149.88222041 -272.70943096 149.88222041 -271.97264385 148.91685176 C-271.07536408 147.73404519 -270.18427179 146.54650759 -269.30076885 145.3533752 C-267.15338213 142.54609687 -265.36670098 140.74156626 -262.33006573 138.88316035 C-258.67986377 136.22292972 -258.63133377 134.1271318 -257.52147198 129.83628535 C-255.92578576 127.71642635 -254.42937978 125.95329492 -252.58397198 124.08628535 C-252.07253643 123.55116328 -251.56110088 123.01604121 -251.03416729 122.46470332 C-249.21238787 120.57252975 -247.36865816 118.70366181 -245.52147198 116.83628535 C-244.76398663 116.06510371 -244.00650127 115.29392207 -243.22606182 114.49937129 C-220.47707116 91.37297383 -220.47707116 91.37297383 -210.33006573 86.6839416 C-207.67318808 84.93609303 -206.19512299 83.42475457 -204.17381573 81.0198791 C-200.72239607 76.9220491 -197.02527858 73.89327326 -192.64647198 70.83628535 C-191.88326641 70.29504024 -191.12006084 69.75379512 -190.33372784 69.19614863 C-161.1070766 48.71577906 -129.76920017 28.60626622 -95.22069073 18.70347285 C-92.55973269 17.84857751 -89.98930663 16.83774514 -87.39744854 15.79478145 C-77.02956693 11.67113281 -66.34381822 9.11389858 -55.4551115 6.74798274 C-52.6542004 6.1218343 -49.8986754 5.39262941 -47.13569927 4.61680293 C-31.49818679 0.41025849 -16.08133373 0.01461514 0 0 Z" fill="#FFFFFF" transform="translate(458.5214719772339,95.16371464729309)"/>
</svg>
